# xmcd CD database file
#
# Track frame offsets:
#	150
#	30047
#	55105
#	88237
#	113022
#	139202
#	157790
#	190685
#	209555
#
# Disc length: 3348 seconds
#
# Revision: 0
# Processed by: cddbd v1.5.1PL0 Copyright (c) Steve Scherf et al.
# Submitted via: CDex 1.50
#
DISCID=6c0d1209
DTITLE=Various Artist - JAZZ and нк┴к (138) - JAZZ: PARIS-NEW YORK
DYEAR=1900
DGENRE=Jazz
TTITLE0=STEVE LACY, ERIC WATSON - PEGGY'S BLUE SKYLIGHT
TTITLE1=JUDY NIEMACK - LONG AS YOU'RE LIVING
TTITLE2=MAL WALDRON, MARION BROWN - BLUE MONK
TTITLE3=TONY MALABY - HUMPTY DUMPTY
TTITLE4=JUDY NIEMACK - MOANIN'
TTITLE5=CINDY BLACKMAN - NEXT TIME FOREVER
TTITLE6=ERIC WATSON TRIO - PUNK CIRCUS
TTITLE7=SANTI DEBRIANO - SUNSET
TTITLE8=STEVE LACY - CLICHES
EXTD=
EXTT0=
EXTT1=
EXTT2=
EXTT3=
EXTT4=
EXTT5=
EXTT6=
EXTT7=
EXTT8=
PLAYORDER=
